<svg xmlns="http://www.w3.org/2000/svg" width="32" height="32" viewBox="0 0 32 32">
  <path id="패스_31" data-name="패스 31" d="M32.092,15.569v.875a4.519,4.519,0,0,0-.066.459,13.29,13.29,0,0,1-.729,3.974c-2.209,6.174-6.536,9.86-13.028,10.941a14.534,14.534,0,0,1-5.4-.16,15.532,15.532,0,0,1-8.919-5.269A15.575,15.575,0,0,1,.427,12.8a15.38,15.38,0,0,1,5.4-9.046A15.579,15.579,0,0,1,14.341.134c.432-.047.865-.09,1.3-.134h.876L17.1.075c.731.092,1.473.133,2.192.285a15.721,15.721,0,0,1,9,5.355,15.576,15.576,0,0,1,3.661,8.524c.049.443.092.887.137,1.33M12.876,16.654V26.729c0,.409,0,.41.419.411,1.2,0,2.4-.011,3.6.007.322.005.4-.1.4-.41-.011-3.219-.006-6.437-.006-9.656v-.427h.378c.73,0,1.459-.008,2.189.005.23,0,.3-.073.318-.3.061-.725.151-1.446.226-2.17.041-.409.071-.819.11-1.268H17.282c0-.733,0-1.428,0-2.123a.847.847,0,0,1,.956-.964q1-.008,2,0c.182,0,.3-.031.294-.253-.007-1.053-.005-2.1,0-3.157,0-.172-.071-.245-.243-.243-1.281.02-2.565-.022-3.841.071a3.751,3.751,0,0,0-3.4,3.042,15.526,15.526,0,0,0-.169,3.109c0,.162,0,.326,0,.521-.6,0-1.164.012-1.724-.005-.258-.007-.344.075-.341.336.012,1.02.015,2.042,0,3.062-.005.288.1.35.364.341.55-.017,1.1-.005,1.7-.005" transform="translate(-0.092)" fill="#3b5998"/>
</svg>
