<svg xmlns="http://www.w3.org/2000/svg" width="60.018" height="60" viewBox="0 0 60.018 60">
  <g id="그룹_339" data-name="그룹 339" transform="translate(8365 11530.266)">
    <path id="합치기_1" data-name="합치기 1" d="M30.019,59.735H30a30,30,0,1,1,30-30h.018v30Z" transform="translate(-8365 -11530)" fill="#7dcaae"/>
    <g id="그룹_338" data-name="그룹 338" transform="translate(4.506 8.679)">
      <path id="패스_94" data-name="패스 94" d="M14.061.495A10.163,10.163,0,0,0,10.95,0C4.912,0,0,5.253,0,11.709V22.834H3.577V11.709c0-4.484,3.307-8.132,7.372-8.132.046,0,.09,0,.135.005A13.376,13.376,0,0,1,14.061.495" transform="translate(-8355.734 -11520.444)" fill="#fff"/>
      <path id="패스_95" data-name="패스 95" d="M3.577,11.709V22.834H0V11.709C0,5.253,4.912,0,10.95,0a10.162,10.162,0,0,1,3.111.494,13.386,13.386,0,0,0-2.976,3.088c-.045,0-.09-.005-.135-.005-4.066,0-7.373,3.648-7.373,8.132" transform="translate(-8355.734 -11520.444)" fill="#fff"/>
      <path id="패스_96" data-name="패스 96" d="M33.636,0a10.248,10.248,0,0,0-3.6.665,10.437,10.437,0,0,0-1.55.717,11.154,11.154,0,0,0-3.322,2.924,11.722,11.722,0,0,0-.833,1.266,12.263,12.263,0,0,0-1.643,6.137V22.834h3.577V11.709a8.768,8.768,0,0,1,.987-4.048,8.194,8.194,0,0,1,.885-1.349l.213-.263.212.262a8.2,8.2,0,0,1,.885,1.35,8.762,8.762,0,0,1,.987,4.048V23h3.577V11.709a12.262,12.262,0,0,0-1.643-6.137,11.7,11.7,0,0,0-.833-1.266l-.239-.312.376-.115a6.74,6.74,0,0,1,1.683-.287l.1-.006c.061,0,.123-.009.185-.009,4.065,0,7.372,3.648,7.372,8.132V23h3.578V11.709C44.586,5.253,39.674,0,33.636,0" transform="translate(-8367.845 -11520.444)" fill="#fff"/>
    </g>
  </g>
</svg>
