<svg xmlns="http://www.w3.org/2000/svg" xmlns:xlink="http://www.w3.org/1999/xlink" width="48" height="48" viewBox="0 0 48 48">
  <defs>
    <clipPath id="clip-path">
      <rect id="사각형_154" data-name="사각형 154" width="27" height="18.989" transform="translate(0 0)" fill="rgba(0,0,0,0.9)"/>
    </clipPath>
  </defs>
  <g id="그룹_258" data-name="그룹 258" transform="translate(-477 -2959)">
    <g id="사각형_168" data-name="사각형 168" transform="translate(477 2959)" fill="#fff" stroke="rgba(0,0,0,0.15)" stroke-width="1">
      <rect width="48" height="48" stroke="none"/>
      <rect x="0.5" y="0.5" width="47" height="47" fill="none"/>
    </g>
    <g id="그룹_247" data-name="그룹 247" transform="translate(487.5 2974.505)">
      <g id="그룹_246" data-name="그룹 246" clip-path="url(#clip-path)">
        <path id="타원_3" data-name="타원 3" d="M1.2-.5A1.7,1.7,0,1,1-.5,1.2,1.7,1.7,0,0,1,1.2-.5Zm0,2.4a.7.7,0,1,0-.7-.7A.7.7,0,0,0,1.2,1.9Z" transform="translate(12.301 16.091)" fill="rgba(0,0,0,0.9)"/>
        <path id="타원_4" data-name="타원 4" d="M1.2-.5A1.7,1.7,0,1,1-.5,1.2,1.7,1.7,0,0,1,1.2-.5Zm0,2.4a.7.7,0,1,0-.7-.7A.7.7,0,0,0,1.2,1.9Z" transform="translate(12.301 16.091)" fill="rgba(0,0,0,0.9)"/>
        <path id="패스_77" data-name="패스 77" d="M23.094,10.594a.5.5,0,0,1-.4-.2,11.493,11.493,0,0,0-18.389,0,.5.5,0,1,1-.8-.6A12.65,12.65,0,0,1,7.832,6.157a12.485,12.485,0,0,1,11.335,0,12.65,12.65,0,0,1,4.326,3.636.5.5,0,0,1-.4.8Z" fill="rgba(0,0,0,0.9)"/>
        <path id="패스_78" data-name="패스 78" d="M26.5,7.188A.5.5,0,0,1,26.112,7,16.249,16.249,0,0,0,.888,7a.5.5,0,1,1-.776-.631,17.249,17.249,0,0,1,26.776,0,.5.5,0,0,1-.388.815Z" fill="rgba(0,0,0,0.9)"/>
        <path id="타원_5" data-name="타원 5" d="M1.2-.5A1.7,1.7,0,1,1-.5,1.2,1.7,1.7,0,0,1,1.2-.5Zm0,2.4a.7.7,0,1,0-.7-.7A.7.7,0,0,0,1.2,1.9Z" transform="translate(12.301 16.091)" fill="rgba(0,0,0,0.9)"/>
        <path id="타원_6" data-name="타원 6" d="M1.2-.5A1.7,1.7,0,1,1-.5,1.2,1.7,1.7,0,0,1,1.2-.5Zm0,2.4a.7.7,0,1,0-.7-.7A.7.7,0,0,0,1.2,1.9Z" transform="translate(12.301 16.091)" fill="rgba(0,0,0,0.9)"/>
        <path id="패스_79" data-name="패스 79" d="M18.765,14.923a.5.5,0,0,1-.44-.261,5.492,5.492,0,0,0-9.651,0,.5.5,0,1,1-.878-.478,6.492,6.492,0,0,1,11.407,0,.5.5,0,0,1-.439.739Z" fill="rgba(0,0,0,0.9)"/>
        <path id="패스_80" data-name="패스 80" d="M23.094,10.594a.5.5,0,0,1-.4-.2,11.493,11.493,0,0,0-18.389,0,.5.5,0,1,1-.8-.6A12.65,12.65,0,0,1,7.832,6.157a12.485,12.485,0,0,1,11.335,0,12.65,12.65,0,0,1,4.326,3.636.5.5,0,0,1-.4.8Z" fill="rgba(0,0,0,0.9)"/>
      </g>
    </g>
  </g>
</svg>
