<svg xmlns="http://www.w3.org/2000/svg" width="48" height="48" viewBox="0 0 48 48">
  <g id="그룹_271" data-name="그룹 271" transform="translate(-252 -2959)">
    <g id="사각형_164" data-name="사각형 164" transform="translate(252 2959)" fill="#fff" stroke="rgba(0,0,0,0.15)" stroke-width="1">
      <rect width="48" height="48" stroke="none"/>
      <rect x="0.5" y="0.5" width="47" height="47" fill="none"/>
    </g>
    <g id="그룹_238" data-name="그룹 238" transform="translate(263 2973)">
      <g id="그룹_239" data-name="그룹 239">
        <path id="사각형_147" data-name="사각형 147" d="M0-.5H26a.5.5,0,0,1,.5.5V4a.5.5,0,0,1-.5.5H0A.5.5,0,0,1-.5,4V0A.5.5,0,0,1,0-.5ZM25.5.5H.5v3h25Z" transform="translate(0.5 4.5)" fill="rgba(0,0,0,0.9)"/>
        <path id="사각형_148" data-name="사각형 148" d="M0-.5H26a.5.5,0,0,1,.5.5V12a.5.5,0,0,1-.5.5H0A.5.5,0,0,1-.5,12V0A.5.5,0,0,1,0-.5ZM25.5.5H.5v11h25Z" transform="translate(0.5 8.5)" fill="rgba(0,0,0,0.9)"/>
        <path id="선_73" data-name="선 73" d="M0,4.5a.5.5,0,0,1-.3-.1.5.5,0,0,1-.1-.7l3-4a.5.5,0,0,1,.7-.1.5.5,0,0,1,.1.7l-3,4A.5.5,0,0,1,0,4.5Z" transform="translate(20.5 0.5)" fill="rgba(0,0,0,0.9)"/>
        <path id="선_74" data-name="선 74" d="M3,4.5a.5.5,0,0,1-.4-.2l-3-4A.5.5,0,0,1-.3-.4a.5.5,0,0,1,.7.1l3,4a.5.5,0,0,1-.4.8Z" transform="translate(3.5 0.5)" fill="rgba(0,0,0,0.9)"/>
      </g>
    </g>
  </g>
</svg>
