<svg xmlns="http://www.w3.org/2000/svg" width="48" height="48" viewBox="0 0 48 48">
  <g id="그룹_270" data-name="그룹 270" transform="translate(-527 -3196)">
    <g id="그룹_268" data-name="그룹 268" transform="translate(542 3212)">
      <g id="사각형_173" data-name="사각형 173" transform="translate(-15 -16)" fill="#fff" stroke="rgba(0,0,0,0.15)" stroke-width="1">
        <rect width="48" height="48" stroke="none"/>
        <rect x="0.5" y="0.5" width="47" height="47" fill="none"/>
      </g>
      <g id="그룹_269" data-name="그룹 269" transform="translate(-2.999 -4.001)">
        <path id="패스_69" data-name="패스 69" d="M21.65,24.5h0a22.01,22.01,0,0,1-8.621-1.742,22.071,22.071,0,0,1-7.039-4.747A22.08,22.08,0,0,1-.5,2.351,1.732,1.732,0,0,1,.846.657L5.671-.455a1.744,1.744,0,0,1,1.99,1l2.229,5.2a1.746,1.746,0,0,1-.5,2.031L6.959,9.76a16.609,16.609,0,0,0,7.274,7.275l1.987-2.428a1.741,1.741,0,0,1,2.028-.5l5.2,2.23a1.767,1.767,0,0,1,1.008,1.99v.006l-1.114,4.821A1.73,1.73,0,0,1,21.65,24.5ZM6.061.75a.5.5,0,0,0-.11.013L1.128,1.875a.487.487,0,0,0-.378.476A20.761,20.761,0,0,0,6.869,17.129a20.76,20.76,0,0,0,14.776,6.122l0,.625v-.625a.485.485,0,0,0,.476-.377l1.113-4.818a.513.513,0,0,0-.29-.574l-5.192-2.225a.491.491,0,0,0-.57.141l-2.609,3.189-.441-.208A17.856,17.856,0,0,1,5.614,9.856l-.208-.442,3.2-2.6a.49.49,0,0,0,.14-.57L6.513,1.045A.494.494,0,0,0,6.061.75Z" transform="translate(0)" fill="rgba(0,0,0,0.9)"/>
      </g>
    </g>
  </g>
</svg>
