<svg xmlns="http://www.w3.org/2000/svg" xmlns:xlink="http://www.w3.org/1999/xlink" width="48" height="48" viewBox="0 0 48 48">
  <defs>
    <clipPath id="clip-path">
      <rect id="사각형_151" data-name="사각형 151" width="26" height="21" fill="#1a1a1a"/>
    </clipPath>
  </defs>
  <g id="그룹_259" data-name="그룹 259" transform="translate(-419 -2959)">
    <g id="사각형_165" data-name="사각형 165" transform="translate(419 2959)" fill="#fff" stroke="rgba(0,0,0,0.15)" stroke-width="1">
      <rect width="48" height="48" stroke="none"/>
      <rect x="0.5" y="0.5" width="47" height="47" fill="none"/>
    </g>
    <g id="그룹_243" data-name="그룹 243" transform="translate(430 2972.5)">
      <g id="그룹_242" data-name="그룹 242" clip-path="url(#clip-path)">
        <path id="패스_71" data-name="패스 71" d="M7.361,14.722A7.361,7.361,0,1,1,7.361,0C9.837,0,19.226,2.9,19.625,3.022a.5.5,0,0,1,.352.476l.023,8a.5.5,0,0,1-.365.483C19.237,12.093,9.846,14.722,7.361,14.722ZM7.361,1a6.361,6.361,0,1,0,0,12.722c2.086,0,9.855-2.11,11.638-2.6l-.021-7.25C17.225,3.336,9.432,1,7.361,1Z" fill="#1a1a1a"/>
        <path id="선_77" data-name="선 77" d="M3,.5H0A.5.5,0,0,1-.5,0,.5.5,0,0,1,0-.5H3a.5.5,0,0,1,.5.5A.5.5,0,0,1,3,.5Z" transform="translate(21.5 7.5)" fill="#1a1a1a"/>
        <path id="패스_72" data-name="패스 72" d="M24.5,6h-3a.5.5,0,0,1,0-1h3a.5.5,0,0,0,0-1,.5.5,0,0,1,0-1,1.5,1.5,0,0,1,0,3Z" fill="#1a1a1a"/>
        <path id="패스_73" data-name="패스 73" d="M24.5,12a.5.5,0,0,1,0-1,.5.5,0,0,0,0-1h-3a.5.5,0,0,1,0-1h3a1.5,1.5,0,0,1,0,3Z" fill="#1a1a1a"/>
        <path id="선_78" data-name="선 78" d="M0,12.5A.5.5,0,0,1-.5,12V0A.5.5,0,0,1,0-.5.5.5,0,0,1,.5,0V12A.5.5,0,0,1,0,12.5Z" transform="translate(4.488 1.5)" fill="#1a1a1a"/>
        <path id="타원_2" data-name="타원 2" d="M2-.5A2.5,2.5,0,1,1-.5,2,2.5,2.5,0,0,1,2-.5Zm0,4A1.5,1.5,0,1,0,.5,2,1.5,1.5,0,0,0,2,3.5Z" transform="translate(6.5 5.5)" fill="#1a1a1a"/>
        <path id="패스_74" data-name="패스 74" d="M7,21a2,2,0,0,1-2-2V14.5a.5.5,0,0,1,1,0V19a1,1,0,0,0,2,0V14.5a.5.5,0,0,1,1,0V19A2,2,0,0,1,7,21Z" fill="#1a1a1a"/>
      </g>
    </g>
  </g>
</svg>
