<svg xmlns="http://www.w3.org/2000/svg" width="48" height="48" viewBox="0 0 48 48">
  <g id="그룹_275" data-name="그룹 275" transform="translate(-400 -3372)">
    <g id="사각형_174" data-name="사각형 174" transform="translate(400 3372)" fill="#fff" stroke="rgba(0,0,0,0.15)" stroke-width="1">
      <rect width="48" height="48" stroke="none"/>
      <rect x="0.5" y="0.5" width="47" height="47" fill="none"/>
    </g>
    <g id="그룹_273" data-name="그룹 273" transform="translate(411.5 3383.07)">
      <g id="그룹_274" data-name="그룹 274">
        <path id="패스_69" data-name="패스 69" d="M17.013,25.859H9.054a4.12,4.12,0,0,1-.809-.081l-5.453-1.09H.5a.5.5,0,0,1-.5-.5V18.335a.5.5,0,0,1,.5-.5H5.062a3.989,3.989,0,0,1,7.266,0H15.72a2.255,2.255,0,0,1,1.873,3.512h.357l4.644-2.159A1.629,1.629,0,0,1,23.329,19a1.663,1.663,0,0,1,.766,3.143l-4.881,3.075A4.128,4.128,0,0,1,17.013,25.859ZM1,23.688H2.841a.5.5,0,0,1,.1.01l5.5,1.1a3.118,3.118,0,0,0,.613.061h7.959a3.129,3.129,0,0,0,1.669-.482l4.9-3.087.042-.023A.663.663,0,0,0,23.329,20a.654.654,0,0,0-.294.081l-.013.006L18.272,22.3a.5.5,0,0,1-.211.047H15.72a.5.5,0,1,1,0-1,1.256,1.256,0,1,0,0-2.512H11.992a.5.5,0,0,1-.471-.332,2.992,2.992,0,0,0-5.652,0,.5.5,0,0,1-.471.332H1Z"/>
        <path id="선_73" data-name="선 73" d="M5.854.5H0A.5.5,0,0,1-.5,0,.5.5,0,0,1,0-.5H5.854a.5.5,0,0,1,.5.5A.5.5,0,0,1,5.854.5Z" transform="translate(9.866 21.847)"/>
        <path id="패스_70" data-name="패스 70" d="M18.061,22.347H15.719a.5.5,0,0,1,0-1,1.255,1.255,0,0,0,1.04-1.96.5.5,0,0,1,.827-.562,2.252,2.252,0,0,1,.007,2.522h.357L20.639,20.1a.5.5,0,1,1,.421.907l-2.789,1.3A.5.5,0,0,1,18.061,22.347Z"/>
        <path id="패스_71" data-name="패스 71" d="M15.211,18.835H11.992a.5.5,0,0,1-.471-.333,3.024,3.024,0,0,0-1.381-1.627A.5.5,0,0,1,10.628,16a4.032,4.032,0,0,1,1.7,1.833h2.883a.5.5,0,0,1,0,1Z"/>
        <path id="패스_72" data-name="패스 72" d="M10.383,16.937a.5.5,0,0,1-.243-.063,2.933,2.933,0,0,0-2.89,0,.5.5,0,0,1-.6-.091A2.833,2.833,0,0,1,10.159,12.4a.5.5,0,1,1-.518.855,1.8,1.8,0,0,0-.946-.272,1.844,1.844,0,0,0-1.842,1.842,1.818,1.818,0,0,0,.293.99,3.9,3.9,0,0,1,1.549-.319A3.976,3.976,0,0,1,10.627,16a.5.5,0,0,1-.244.937Z"/>
        <path id="패스_73" data-name="패스 73" d="M9.9,13.324a.5.5,0,0,1-.494-.43l0-.034a2.591,2.591,0,0,1-.034-.379,2.834,2.834,0,0,1,5.322-1.365.5.5,0,1,1-.876.483,1.834,1.834,0,0,0-3.446.881,1.744,1.744,0,0,0,.024.237l.005.035a.5.5,0,0,1-.5.57Z"/>
        <path id="패스_74" data-name="패스 74" d="M20.194,13a.5.5,0,0,1-.472-.336,2.983,2.983,0,0,0-5.094-.981.5.5,0,0,1-.755-.656,3.983,3.983,0,0,1,6.794,1.307.5.5,0,0,1-.472.665Z"/>
        <path id="패스_75" data-name="패스 75" d="M22.343,16.633a.5.5,0,0,1-.414-.78A1.842,1.842,0,0,0,20.4,12.981c-.011,0-.04,0-.064.007s-.068.009-.1.012a.5.5,0,1,1-.085-1L20.2,12a1.408,1.408,0,0,1,.2-.016,2.842,2.842,0,0,1,2.354,4.432A.5.5,0,0,1,22.343,16.633Z"/>
        <path id="패스_76" data-name="패스 76" d="M20.85,21.051a.5.5,0,0,1-.211-.954l1.954-.908a1.628,1.628,0,0,1,.689-.183,1.772,1.772,0,0,0,.132-.672,1.838,1.838,0,0,0-1.237-1.729.5.5,0,1,1,.33-.944,2.817,2.817,0,0,1,1.483,4.152.5.5,0,0,1-.526.229c-.042-.009-.079-.019-.109-.027l-.039-.01a.649.649,0,0,0-.28.08l-.015.007L21.061,21A.5.5,0,0,1,20.85,21.051Z"/>
        <path id="타원_2" data-name="타원 2" d="M3-.5A3.5,3.5,0,1,1-.5,3,3.5,3.5,0,0,1,3-.5Zm0,6A2.5,2.5,0,1,0,.5,3,2.5,2.5,0,0,0,3,5.5Z" transform="translate(2.5 4.5)"/>
        <path id="타원_3" data-name="타원 3" d="M1-.5A1.5,1.5,0,1,1-.5,1,1.5,1.5,0,0,1,1-.5Zm0,2A.5.5,0,1,0,.5,1,.5.5,0,0,0,1,1.5Z" transform="translate(15.5 0.5)"/>
        <path id="타원_4" data-name="타원 4" d="M1.5-.5a2,2,0,1,1-2,2A2,2,0,0,1,1.5-.5Zm0,3a1,1,0,1,0-1-1A1,1,0,0,0,1.5,2.5Z" transform="translate(19.5 5.5)"/>
      </g>
    </g>
  </g>
</svg>
