<svg xmlns="http://www.w3.org/2000/svg" xmlns:xlink="http://www.w3.org/1999/xlink" width="48" height="48" viewBox="0 0 48 48">
  <defs>
    <clipPath id="clip-path">
      <rect id="사각형_150" data-name="사각형 150" width="26.831" height="27" fill="rgba(0,0,0,0.9)"/>
    </clipPath>
  </defs>
  <g id="그룹_260" data-name="그룹 260" transform="translate(-476 -2959)">
    <g id="사각형_166" data-name="사각형 166" transform="translate(476 2959)" fill="#fff" stroke="rgba(0,0,0,0.15)" stroke-width="1">
      <rect width="48" height="48" stroke="none"/>
      <rect x="0.5" y="0.5" width="47" height="47" fill="none"/>
    </g>
    <g id="그룹_241" data-name="그룹 241" transform="translate(487 2970)">
      <g id="그룹_240" data-name="그룹 240" clip-path="url(#clip-path)">
        <path id="사각형_149" data-name="사각형 149" d="M1.111-.5h.778A1.613,1.613,0,0,1,3.5,1.111V9.889A1.613,1.613,0,0,1,1.889,11.5H1.111A1.613,1.613,0,0,1-.5,9.889V1.111A1.613,1.613,0,0,1,1.111-.5Zm.778,11A.612.612,0,0,0,2.5,9.889V1.111A.612.612,0,0,0,1.889.5H1.111A.612.612,0,0,0,.5,1.111V9.889a.612.612,0,0,0,.611.611Z" transform="translate(10.5 8.5)" fill="rgba(0,0,0,0.9)"/>
        <path id="선_75" data-name="선 75" d="M15,.5H0A.5.5,0,0,1-.5,0,.5.5,0,0,1,0-.5H15a.5.5,0,0,1,.5.5A.5.5,0,0,1,15,.5Z" transform="translate(6.5 3.5)" fill="rgba(0,0,0,0.9)"/>
        <path id="선_76" data-name="선 76" d="M0,9.5A.5.5,0,0,1-.5,9V0A.5.5,0,0,1,0-.5.5.5,0,0,1,.5,0V9A.5.5,0,0,1,0,9.5Z" transform="translate(21.5 6.625)" fill="rgba(0,0,0,0.9)"/>
        <path id="패스_69" data-name="패스 69" d="M23.5,24H4.737a.5.5,0,0,1-.5-.508l.125-7.911q0-.008,0-.017A10.574,10.574,0,0,0,2.079,8.49L.357,6.309a1.628,1.628,0,0,1-.25-1.6,1.693,1.693,0,0,1,1.3-1.068A45.8,45.8,0,0,1,6.48,3.024C7.071,1.017,8.575,0,10.956,0h7.775C20.22,0,21.218,1.942,21.6,3H22.4a3.76,3.76,0,0,1,3.784,3.414l.637,8.6a2.708,2.708,0,0,1-.729,2.062A2.909,2.909,0,0,1,23.966,18a.342.342,0,0,0-.251.1.285.285,0,0,0-.081.206L24,23.465a.5.5,0,0,1-.5.535ZM6.8,23H22.962l-.325-4.625v-.01a1.274,1.274,0,0,1,.354-.949A1.351,1.351,0,0,1,23.966,17a1.906,1.906,0,0,0,1.4-.6,1.718,1.718,0,0,0,.465-1.307l-.637-8.605A2.757,2.757,0,0,0,22.4,4H21.23a.5.5,0,0,1-.483-.369C20.457,2.558,19.526,1,18.731,1H10.956c-2.69,0-3.34,1.49-3.6,2.611A.5.5,0,0,1,6.9,4a45.07,45.07,0,0,0-5.318.628.7.7,0,0,0-.543.438.628.628,0,0,0,.1.624L2.863,7.87a11.574,11.574,0,0,1,2.5,7.735L5.245,23Z" fill="rgba(0,0,0,0.9)"/>
        <path id="패스_70" data-name="패스 70" d="M25.5,27H2.5a.5.5,0,0,1-.5-.5v-1A2.5,2.5,0,0,1,4.5,23h19A2.5,2.5,0,0,1,26,25.5v1A.5.5,0,0,1,25.5,27ZM3,26H25v-.5A1.5,1.5,0,0,0,23.5,24H4.5A1.5,1.5,0,0,0,3,25.5Z" fill="rgba(0,0,0,0.9)"/>
      </g>
    </g>
  </g>
</svg>
