<svg xmlns="http://www.w3.org/2000/svg" width="46" height="48" viewBox="0 0 46 48">
  <g id="그룹_263" data-name="그룹 263" transform="translate(-646 -2959)">
    <g id="사각형_169" data-name="사각형 169" transform="translate(646 2959)" fill="#fff" stroke="rgba(0,0,0,0.15)" stroke-width="1">
      <rect width="46" height="48" stroke="none"/>
      <rect x="0.5" y="0.5" width="45" height="47" fill="none"/>
    </g>
    <g id="그룹_256" data-name="그룹 256" transform="translate(660.968 2971)">
      <g id="그룹_262" data-name="그룹 262">
        <path id="사각형_161" data-name="사각형 161" d="M0-.5H16a.5.5,0,0,1,.5.5V20a.5.5,0,0,1-.5.5H0A.5.5,0,0,1-.5,20V0A.5.5,0,0,1,0-.5ZM15.5.5H.5v19h15Z" transform="translate(0.5 4.5)"/>
        <path id="사각형_162" data-name="사각형 162" d="M0-.5H16a.5.5,0,0,1,.5.5V4a.5.5,0,0,1-.5.5H0A.5.5,0,0,1-.5,4V0A.5.5,0,0,1,0-.5ZM15.5.5H.5v3h15Z" transform="translate(0.5 0.5)"/>
        <path id="타원_7" data-name="타원 7" d="M5-.5A5.5,5.5,0,1,1-.5,5,5.506,5.506,0,0,1,5-.5Zm0,10A4.5,4.5,0,1,0,.5,5,4.505,4.505,0,0,0,5,9.5Z" transform="translate(3.5 9.5)"/>
        <path id="선_89" data-name="선 89" d="M2,.5H0A.5.5,0,0,1-.5,0,.5.5,0,0,1,0-.5H2a.5.5,0,0,1,.5.5A.5.5,0,0,1,2,.5Z" transform="translate(12.5 2.5)"/>
      </g>
    </g>
  </g>
</svg>
