<svg id="ic_insta" xmlns="http://www.w3.org/2000/svg" xmlns:xlink="http://www.w3.org/1999/xlink" width="32" height="32" viewBox="0 0 32 32">
  <defs>
    <clipPath id="clip-path">
      <rect id="사각형_70" data-name="사각형 70" width="32" height="32" transform="translate(1629.602 3783.602)" fill="rgba(0,0,0,0.25)" stroke="#707070" stroke-width="1"/>
    </clipPath>
  </defs>
  <g id="마스크_그룹_2" data-name="마스크 그룹 2" transform="translate(-1629.602 -3783.602)" clip-path="url(#clip-path)">
    <path id="__TEMP__SVG__" d="M20.834,15.625a5.21,5.21,0,0,0-5.208-5.208,5.21,5.21,0,0,0-5.208,5.208,5.21,5.21,0,0,0,5.208,5.208,5.21,5.21,0,0,0,5.208-5.208Zm2.807,0a7.988,7.988,0,0,1-8.016,8.016A7.988,7.988,0,0,1,7.61,15.625,7.988,7.988,0,0,1,15.625,7.61a7.988,7.988,0,0,1,8.016,8.016Zm2.2-8.341a1.872,1.872,0,1,1-3.194-1.322,1.872,1.872,0,0,1,3.194,1.322ZM15.625,2.807,14.069,2.8q-1.414-.01-2.147,0t-1.964.061a16.045,16.045,0,0,0-2.1.2,8.086,8.086,0,0,0-1.454.378A5.321,5.321,0,0,0,3.438,6.409a8.165,8.165,0,0,0-.377,1.455,16.045,16.045,0,0,0-.2,2.1q-.05,1.231-.061,1.964t0,2.147q.01,1.414.01,1.556T2.8,17.183q-.01,1.414,0,2.147t.061,1.964a16.045,16.045,0,0,0,.2,2.1,8.116,8.116,0,0,0,.377,1.453,5.321,5.321,0,0,0,2.971,2.971,8.164,8.164,0,0,0,1.455.377,16.045,16.045,0,0,0,2.1.2q1.231.05,1.964.061t2.147,0l1.556-.01,1.556.01q1.414.01,2.147,0t1.964-.061a16.043,16.043,0,0,0,2.1-.2,8.165,8.165,0,0,0,1.455-.377,5.321,5.321,0,0,0,2.971-2.971,8.164,8.164,0,0,0,.377-1.455,16.045,16.045,0,0,0,.2-2.1q.05-1.231.061-1.964t0-2.147q-.01-1.414-.01-1.556t.01-1.556q.01-1.414,0-2.147t-.061-1.964a16.043,16.043,0,0,0-.2-2.1,8.008,8.008,0,0,0-.378-1.453,5.321,5.321,0,0,0-2.971-2.971,8.165,8.165,0,0,0-1.455-.377,16.045,16.045,0,0,0-2.1-.2q-1.231-.05-1.964-.061t-2.147,0l-1.556.01ZM31.251,15.625q0,4.659-.1,6.45a9.543,9.543,0,0,1-2.523,6.551,9.543,9.543,0,0,1-6.551,2.523q-1.791.1-6.45.1t-6.45-.1a9.543,9.543,0,0,1-6.551-2.523A9.543,9.543,0,0,1,.1,22.075Q0,20.284,0,15.625t.1-6.45A9.543,9.543,0,0,1,2.624,2.624,9.543,9.543,0,0,1,9.176.1q1.791-.1,6.45-.1t6.45.1a9.543,9.543,0,0,1,6.551,2.523,9.543,9.543,0,0,1,2.523,6.551Q31.251,10.966,31.251,15.625Z" transform="translate(1629.977 3783.977)" fill="rgba(0,0,0,0.25)"/>
  </g>
</svg>
