<svg id="그룹_34" data-name="그룹 34" xmlns="http://www.w3.org/2000/svg" width="32" height="32" viewBox="0 0 32 32">
  <g id="그룹_36" data-name="그룹 36">
    <path id="패스_28" data-name="패스 28" d="M32,24.88A7.119,7.119,0,0,1,24.88,32H7.12A7.119,7.119,0,0,1,0,24.88V7.12A7.119,7.119,0,0,1,7.12,0H24.88A7.119,7.119,0,0,1,32,7.12Z" fill="#fae100"/>
    <path id="패스_29" data-name="패스 29" d="M37.157,32.33c-5.624,0-10.182,4.147-10.182,9.264,0,3.779,1.609,5.583,3.813,7.227l.01,0V53.26a.259.259,0,0,0,.413.2l3.861-2.821.083.035a11.221,11.221,0,0,0,2,.179c5.623,0,10.181-4.148,10.181-9.264S42.78,32.33,37.157,32.33" transform="translate(-21.173 -25.226)" fill="#fae100"/>
    <path id="패스_30" data-name="패스 30" d="M37.157,26c-5.624,0-10.182,4.177-10.182,9.33,0,3.805,1.609,5.622,3.813,7.278l.01,0V47.08a.259.259,0,0,0,.413.206l3.861-2.841.083.036a11.144,11.144,0,0,0,2,.181c5.623,0,10.181-4.177,10.181-9.33S42.78,26,37.157,26M33.743,37.695a2.125,2.125,0,0,0,2.109-1.506h1.475A3.524,3.524,0,0,1,33.743,39.1a3.782,3.782,0,1,1,0-7.563,3.527,3.527,0,0,1,3.6,2.967H35.867a2.1,2.1,0,0,0-2.124-1.58,2.294,2.294,0,0,0-2.4,2.394,2.353,2.353,0,0,0,2.4,2.375m9.727,1.262H42.118V35.934a.967.967,0,0,0-1.038-1.07c-.7,0-1.153.426-1.153,1.288v2.806H38.573V31.562h1.353v2.781a1.739,1.739,0,0,1,1.562-.727,1.864,1.864,0,0,1,1.416.571,2.144,2.144,0,0,1,.567,1.579Z" transform="translate(-21.173 -20.409)" fill="#020303"/>
  </g>
</svg>
