<svg xmlns="http://www.w3.org/2000/svg" width="33" height="33" viewBox="0 0 33 33">
  <g id="ic_ch" transform="translate(0.5 0.5)">
    <g id="그룹_33" data-name="그룹 33" transform="translate(0 0)">
      <path id="빼기_1" data-name="빼기 1" d="M286.022-5065h-17.76a7.128,7.128,0,0,1-7.12-7.12v-17.76a7.128,7.128,0,0,1,7.12-7.12h17.76a7.128,7.128,0,0,1,7.12,7.12v17.76A7.128,7.128,0,0,1,286.022-5065Zm-8.9-26.38c-5.581,0-10.121,4.175-10.121,9.307,0,3.667,1.45,5.5,3.79,7.261l.01.005v4.455a.257.257,0,0,0,.258.256.255.255,0,0,0,.152-.051l3.838-2.833.083.034a11.088,11.088,0,0,0,1.989.181c5.581,0,10.121-4.175,10.121-9.308S282.706-5091.381,277.125-5091.381Zm-3.392,13.069a3.71,3.71,0,0,1-3.813-3.773,3.71,3.71,0,0,1,3.813-3.772,3.516,3.516,0,0,1,3.574,2.96h-1.463a2.08,2.08,0,0,0-2.111-1.576,2.282,2.282,0,0,0-2.382,2.388,2.351,2.351,0,0,0,2.382,2.37,2.118,2.118,0,0,0,2.1-1.5H277.3A3.517,3.517,0,0,1,273.733-5078.312Zm6.145-.144h-1.346v-7.377h1.346v2.774a1.731,1.731,0,0,1,1.553-.725,1.861,1.861,0,0,1,1.407.57,2.134,2.134,0,0,1,.563,1.575v3.182h-1.344v-3.016a.966.966,0,0,0-1.032-1.068c-.728,0-1.146.469-1.146,1.286v2.8Z" transform="translate(-261.142 5097)" fill="rgba(0,0,0,0.25)" stroke="rgba(0,0,0,0)" stroke-width="1"/>
    </g>
  </g>
</svg>
