<svg id="youtube" xmlns="http://www.w3.org/2000/svg" width="45.501" height="32" viewBox="0 0 45.501 32">
  <path id="youtube-2" data-name="youtube" d="M21.05,29.4V16.618l12.29,6.415Zm26.992-15s-.443-3.138-1.809-4.518a6.511,6.511,0,0,0-4.559-1.926C35.309,7.5,25.758,7.5,25.758,7.5H25.74s-9.55,0-15.917.46A6.511,6.511,0,0,0,5.264,9.886C3.9,11.266,3.455,14.4,3.455,14.4A68.829,68.829,0,0,0,3,21.768V25.22a68.866,68.866,0,0,0,.455,7.365S3.9,35.719,5.264,37.1c1.729,1.814,4,1.755,5.017,1.944,3.64.347,15.469.455,15.469.455s9.562-.014,15.927-.473A6.508,6.508,0,0,0,46.236,37.1c1.365-1.38,1.809-4.516,1.809-4.516A68.867,68.867,0,0,0,48.5,25.22V21.768a68.792,68.792,0,0,0-.455-7.365Z" transform="translate(-3 -7.5)" fill="rgba(0,0,0,0.25)" fill-rule="evenodd"/>
</svg>
