<svg id="구성_요소_5_1" data-name="구성 요소 5 – 1" xmlns="http://www.w3.org/2000/svg" width="312" height="103" viewBox="0 0 312 103">
  <rect id="사각형_47" data-name="사각형 47" width="312" height="103" fill="none"/>
  <g id="그룹_2" data-name="그룹 2" transform="translate(0 15.213)">
    <g id="그룹_293" data-name="그룹 293" transform="translate(11741.691 14956.019)">
      <rect id="사각형_184" data-name="사각형 184" width="244" height="64" transform="translate(-11741.691 -14951.231)" fill="none"/>
      <g id="그룹_291" data-name="그룹 291" transform="translate(-11739.989 -14945.353)">
        <path id="패스_69" data-name="패스 69" d="M81.388,21.644V3h2.828V19.1H93.2v2.541Z" transform="translate(-3.912 -0.145)" fill="rgba(0,0,0,0.25)"/>
        <g id="그룹_290" data-name="그룹 290" transform="translate(0 0)">
          <g id="그룹_10094" data-name="그룹 10094">
            <path id="패스_70" data-name="패스 70" d="M97.407,16.041c0,2.278,1.205,3.718,3.379,3.718a3.966,3.966,0,0,0,3.221-1.362l1.7,1.6a6.235,6.235,0,0,1-4.977,2.07c-3.327,0-5.972-1.755-5.972-6.81,0-4.3,2.227-6.783,5.632-6.783,3.561,0,5.63,2.619,5.63,6.39v1.179Zm5.6-3.667a2.734,2.734,0,0,0-2.618-1.676,2.773,2.773,0,0,0-2.646,1.676,4.223,4.223,0,0,0-.341,1.807h5.972a4.2,4.2,0,0,0-.367-1.807" transform="translate(-4.555 -0.408)" fill="rgba(0,0,0,0.25)"/>
            <path id="패스_71" data-name="패스 71" d="M122.037,21.645H114.5V3h7.254c3.458,0,5.632,1.964,5.632,5.107a4.224,4.224,0,0,1-2.515,3.954,4.434,4.434,0,0,1,2.8,4.322c0,3.431-2.331,5.264-5.631,5.264m-.525-16.108h-4.189V10.88h4.189c1.808,0,3.039-.943,3.039-2.671s-1.231-2.672-3.039-2.672m.263,7.884h-4.452V19.1h4.452a2.769,2.769,0,0,0,3.064-2.855,2.75,2.75,0,0,0-3.064-2.828" transform="translate(-5.503 -0.145)" fill="rgba(0,0,0,0.25)"/>
            <path id="패스_72" data-name="패스 72" d="M134.591,21.644a3.384,3.384,0,0,1-3.64-3.667V3h2.67V17.82c0,1.021.367,1.546,1.441,1.546h1.178v2.278Z" transform="translate(-6.294 -0.144)" fill="rgba(0,0,0,0.25)"/>
            <path id="패스_73" data-name="패스 73" d="M139.452,16.041c0,2.278,1.2,3.718,3.378,3.718a3.966,3.966,0,0,0,3.221-1.362l1.7,1.6a6.235,6.235,0,0,1-4.977,2.07c-3.326,0-5.971-1.755-5.971-6.81,0-4.3,2.227-6.783,5.631-6.783,3.561,0,5.63,2.619,5.63,6.39v1.179Zm5.6-3.667a2.734,2.734,0,0,0-2.618-1.676,2.773,2.773,0,0,0-2.645,1.676,4.209,4.209,0,0,0-.341,1.807h5.972a4.2,4.2,0,0,0-.367-1.807" transform="translate(-6.575 -0.408)" fill="rgba(0,0,0,0.25)"/>
            <path id="패스_74" data-name="패스 74" d="M158.988,21.915V20.579a4.749,4.749,0,0,1-3.536,1.493,4.606,4.606,0,0,1-3.275-1.205,4.875,4.875,0,0,1-1.335-3.745V8.636h2.67v8.092c0,2.07,1.179,2.96,2.671,2.96a2.644,2.644,0,0,0,2.751-2.96V8.636h2.67V21.915Z" transform="translate(-7.25 -0.416)" fill="rgba(0,0,0,0.25)"/>
            <path id="패스_75" data-name="패스 75" d="M182.238,21.644,173.621,8.522V21.644h-2.828V3h2.593L182,16.091V3h2.828V21.644Z" transform="translate(-8.209 -0.145)" fill="rgba(0,0,0,0.25)"/>
            <path id="패스_76" data-name="패스 76" d="M196.056,21.908V20.7a4.371,4.371,0,0,1-3.536,1.362,4.689,4.689,0,0,1-3.562-1.205A4.074,4.074,0,0,1,187.911,18c0-2.226,1.544-3.824,4.582-3.824H196v-.942c0-1.676-.839-2.488-2.907-2.488a3.11,3.11,0,0,0-2.908,1.284l-1.754-1.651C189.691,8.918,191,8.472,193.2,8.472c3.641,0,5.474,1.545,5.474,4.557v8.879ZM196,16.041h-3.118c-1.571,0-2.383.707-2.383,1.911s.76,1.887,2.436,1.887a3.169,3.169,0,0,0,2.486-.761A2.664,2.664,0,0,0,196,17.115Z" transform="translate(-9.031 -0.408)" fill="rgba(0,0,0,0.25)"/>
            <path id="패스_77" data-name="패스 77" d="M210.519,21.644,206.8,15.515l-1.965,2.227v3.9h-2.671V3h2.671v11.5L210,8.365h3.248l-4.611,5.212,5.187,8.067Z" transform="translate(-9.716 -0.145)" fill="rgba(0,0,0,0.25)"/>
            <path id="패스_78" data-name="패스 78" d="M220.1,22.065a7.313,7.313,0,0,1-5.579-1.911l1.755-1.755a5.16,5.16,0,0,0,3.824,1.388c1.624,0,2.907-.576,2.907-1.833,0-.89-.5-1.466-1.782-1.572L219.1,16.2c-2.488-.209-3.929-1.336-3.929-3.667,0-2.593,2.228-4.059,5-4.059A7.277,7.277,0,0,1,225.1,9.965l-1.676,1.7a5.016,5.016,0,0,0-3.273-.969c-1.6,0-2.409.707-2.409,1.7,0,.785.42,1.388,1.833,1.518l2.1.184c2.488.209,3.954,1.388,3.954,3.745,0,2.776-2.357,4.217-5.526,4.217" transform="translate(-10.31 -0.408)" fill="rgba(0,0,0,0.25)"/>
            <path id="패스_79" data-name="패스 79" d="M235.326,21.908V20.7a4.371,4.371,0,0,1-3.536,1.362,4.689,4.689,0,0,1-3.562-1.205A4.074,4.074,0,0,1,227.181,18c0-2.226,1.545-3.824,4.582-3.824h3.511v-.942c0-1.676-.839-2.488-2.907-2.488a3.111,3.111,0,0,0-2.908,1.284L227.7,10.383c1.258-1.466,2.566-1.911,4.767-1.911,3.64,0,5.473,1.545,5.473,4.557v8.879Zm-.052-5.867h-3.118c-1.571,0-2.383.707-2.383,1.911s.76,1.887,2.436,1.887a3.169,3.169,0,0,0,2.486-.761,2.664,2.664,0,0,0,.578-1.964Z" transform="translate(-10.919 -0.408)" fill="rgba(0,0,0,0.25)"/>
            <path id="패스_80" data-name="패스 80" d="M249.527,21.907V13.814c0-2.07-1.178-2.961-2.67-2.961a2.645,2.645,0,0,0-2.751,2.961v8.092h-2.671V8.628h2.619V9.964a4.751,4.751,0,0,1,3.536-1.493,4.6,4.6,0,0,1,3.273,1.205,4.876,4.876,0,0,1,1.337,3.745v8.486Z" transform="translate(-11.604 -0.408)" fill="rgba(0,0,0,0.25)"/>
            <path id="패스_81" data-name="패스 81" d="M140.586,38.945a2.587,2.587,0,1,0,0,2.743l1.165.723a3.938,3.938,0,1,1,0-4.2Z" transform="translate(-6.458 -1.749)" fill="rgba(0,0,0,0.25)"/>
            <path id="패스_82" data-name="패스 82" d="M147.631,44.087V40.992h-3.064v3.095h-1.426V36.552h1.426v3.074h3.064V36.552h1.427v7.535Z" transform="translate(-6.88 -1.757)" fill="rgba(0,0,0,0.25)"/>
            <path id="패스_83" data-name="패스 83" d="M156.568,42.72v1.366h-5.536V36.552h5.536v1.367h-4.11v1.707h3.416v1.367h-3.416V42.72Z" transform="translate(-7.259 -1.757)" fill="rgba(0,0,0,0.25)"/>
            <path id="패스_84" data-name="패스 84" d="M162.4,38.343a2.81,2.81,0,0,0-1.779-.6c-.693,0-1.155.311-1.165.813-.01.533.191.794,1.577.985,1.488.19,2.442,1.035,2.442,2.361,0,1.436-1.277,2.35-2.854,2.35a4.312,4.312,0,0,1-2.782-.974l.8-1.136a2.823,2.823,0,0,0,1.979.743c.815,0,1.366-.381,1.366-.983,0-.412-.12-.9-1.567-1.085-1.717-.21-2.451-.935-2.451-2.261a2.388,2.388,0,0,1,2.652-2.18,4.192,4.192,0,0,1,2.571.844Z" transform="translate(-7.586 -1.749)" fill="rgba(0,0,0,0.25)"/>
            <path id="패스_85" data-name="패스 85" d="M213.616,38.343a2.809,2.809,0,0,0-1.778-.6c-.694,0-1.156.311-1.165.813-.01.533.19.794,1.577.985,1.486.19,2.441,1.035,2.441,2.361,0,1.436-1.276,2.35-2.853,2.35a4.317,4.317,0,0,1-2.783-.974l.8-1.136a2.823,2.823,0,0,0,1.979.743c.814,0,1.366-.381,1.366-.983,0-.412-.12-.9-1.567-1.085-1.718-.21-2.451-.935-2.451-2.261a2.388,2.388,0,0,1,2.652-2.18,4.2,4.2,0,0,1,2.571.844Z" transform="translate(-10.048 -1.749)" fill="rgba(0,0,0,0.25)"/>
            <path id="패스_86" data-name="패스 86" d="M168.145,37.919v6.169h-1.427V37.919h-2.229V36.553h5.887v1.366Z" transform="translate(-7.906 -1.757)" fill="rgba(0,0,0,0.25)"/>
            <path id="패스_87" data-name="패스 87" d="M177.521,42.72v1.366h-5.535V36.552h5.535v1.367h-4.109v1.707h3.416v1.367h-3.416V42.72Z" transform="translate(-8.266 -1.757)" fill="rgba(0,0,0,0.25)"/>
            <path id="패스_88" data-name="패스 88" d="M183.714,41.455l1.316,2.633h-1.587l-1.2-2.391H180.7v2.391h-1.426V36.553h3.315a2.576,2.576,0,0,1,2.652,2.572,2.5,2.5,0,0,1-1.527,2.329m-1.125-3.535H180.7V40.33h1.889a1.206,1.206,0,0,0,0-2.411" transform="translate(-8.616 -1.757)" fill="rgba(0,0,0,0.25)"/>
            <path id="패스_89" data-name="패스 89" d="M189.972,37.919v6.169h-1.427V37.919h-2.229V36.553H192.2v1.366Z" transform="translate(-8.955 -1.757)" fill="rgba(0,0,0,0.25)"/>
            <path id="패스_90" data-name="패스 90" d="M196.772,44.248a3.939,3.939,0,1,1,4.038-3.938,3.948,3.948,0,0,1-4.038,3.938m0-6.509a2.572,2.572,0,1,0,2.551,2.571,2.559,2.559,0,0,0-2.551-2.571" transform="translate(-9.263 -1.749)" fill="rgba(0,0,0,0.25)"/>
            <path id="패스_91" data-name="패스 91" d="M206.08,36.052l.01,5.033h-.03l-3.023-5V26.147h-.458V53.5h.458V38.564l3.043,5.022h1.427V36.052Z" transform="translate(-9.736 -1.257)" fill="rgba(0,0,0,0.25)"/>
            <path id="패스_92" data-name="패스 92" d="M121.24,43.952a3.767,3.767,0,0,1-.967-.587v.628h-1.117v-7.5h1.1v2.392a3.858,3.858,0,0,1,1-.579,2.541,2.541,0,0,1,.907-.158,3.044,3.044,0,0,1,1.146.208,3.112,3.112,0,0,1,.937.658,3.349,3.349,0,0,1,.609.957,3.075,3.075,0,0,1,.218,1.147,2.887,2.887,0,0,1-.857,2.125,2.835,2.835,0,0,1-2.113.866,2.279,2.279,0,0,1-.858-.159m-.459-1.456a1.716,1.716,0,0,0,1.277.559,1.783,1.783,0,0,0,1.316-.559,1.887,1.887,0,0,0,.559-1.386,1.856,1.856,0,0,0-1.866-1.874,1.748,1.748,0,0,0-1.3.549,1.942,1.942,0,0,0-.538,1.395,1.82,1.82,0,0,0,.547,1.317" transform="translate(-5.727 -1.755)" fill="rgba(0,0,0,0.25)"/>
            <path id="패스_93" data-name="패스 93" d="M126.792,38.4l1.546,3.979,1.715-3.979h1.186l-3.181,7.149h-1.146L127.7,43.8l-2.093-5.4Z" transform="translate(-6.037 -1.846)" fill="rgba(0,0,0,0.25)"/>
            <path id="패스_94" data-name="패스 94" d="M28.711,1.01A20.752,20.752,0,0,0,22.358,0C10.03,0,0,10.726,0,23.91V46.626H7.3V23.91c0-9.156,6.753-16.6,15.054-16.6.093,0,.185,0,.276.01A27.313,27.313,0,0,1,28.711,1.01" transform="translate(0 0)" fill="rgba(0,0,0,0.25)"/>
            <path id="패스_96" data-name="패스 96" d="M45.045,0a20.926,20.926,0,0,0-7.357,1.358,21.311,21.311,0,0,0-3.164,1.465,22.776,22.776,0,0,0-6.783,5.97,23.936,23.936,0,0,0-1.7,2.585,25.04,25.04,0,0,0-3.355,12.531V46.626h7.3V23.909a17.9,17.9,0,0,1,2.016-8.265,16.731,16.731,0,0,1,1.807-2.755l.434-.537.433.536a16.741,16.741,0,0,1,1.807,2.756A17.891,17.891,0,0,1,38.5,23.909V46.964h7.3V23.909a25.038,25.038,0,0,0-3.355-12.531,23.893,23.893,0,0,0-1.7-2.585l-.487-.637.767-.235a13.763,13.763,0,0,1,3.436-.585c.067,0,.134-.008.2-.012.125-.01.25-.019.377-.019,8.3,0,15.054,7.449,15.054,16.6V46.964H67.4V23.909C67.4,10.725,57.374,0,45.045,0" transform="translate(-1.09 0)" fill="rgba(0,0,0,0.25)"/>
          </g>
        </g>
      </g>
    </g>
  </g>
</svg>
